<?xml version="1.0" encoding="UTF-8" standalone="no"?>
<!-- Created with Inkscape (http://www.inkscape.org/) -->

<svg
   xmlns:dc="http://purl.org/dc/elements/1.1/"
   xmlns:cc="http://creativecommons.org/ns#"
   xmlns:rdf="http://www.w3.org/1999/02/22-rdf-syntax-ns#"
   xmlns:svg="http://www.w3.org/2000/svg"
   xmlns="http://www.w3.org/2000/svg"
   xmlns:sodipodi="http://sodipodi.sourceforge.net/DTD/sodipodi-0.dtd"
   xmlns:inkscape="http://www.inkscape.org/namespaces/inkscape"
   id="svg2"
   version="1.1"
   inkscape:version="0.91 r13725"
   xml:space="preserve"
   width="800"
   height="336.10001"
   viewBox="0 0 800 336.09999"
   sodipodi:docname="Logo RMC.svg"><metadata
     id="metadata8"><rdf:RDF><cc:Work
         rdf:about=""><dc:format>image/svg+xml</dc:format><dc:type
           rdf:resource="http://purl.org/dc/dcmitype/StillImage" /><dc:title></dc:title></cc:Work></rdf:RDF></metadata><defs
     id="defs6" /><sodipodi:namedview
     pagecolor="#ffffff"
     bordercolor="#666666"
     borderopacity="1"
     objecttolerance="10"
     gridtolerance="10"
     guidetolerance="10"
     inkscape:pageopacity="0"
     inkscape:pageshadow="2"
     inkscape:window-width="1280"
     inkscape:window-height="691"
     id="namedview4"
     showgrid="false"
     inkscape:zoom="0.53463861"
     inkscape:cx="329.09616"
     inkscape:cy="139.24102"
     inkscape:window-x="0"
     inkscape:window-y="1"
     inkscape:window-maximized="1"
     inkscape:current-layer="g10" /><g
     id="g10"
     inkscape:groupmode="layer"
     inkscape:label="Calendrier_Pro_A_2017-18 - copie"
     transform="matrix(1.25,0,0,-1.25,0,336.09995)"><g
       id="g5221"><g
         id="g5217"><path
           d="m 2.7760001e-5,72.153991 639.999992239999,0 0,196.735059 -639.999992239999,0 0,-196.735059 z"
           style="fill:#df151c;fill-opacity:1;fill-rule:nonzero;stroke:none"
           id="path2380"
           inkscape:connector-curvature="0" /><path
           d="m 2.7760001e-5,-3.5408e-5 639.999992239999,0 0,73.079634408 -639.999992239999,0 0,-73.079634408 z"
           style="fill:#1e1819;fill-opacity:1;fill-rule:nonzero;stroke:none"
           id="path2382"
           inkscape:connector-curvature="0" /></g><g
         id="g5195"><g
           id="g5175"><path
             inkscape:connector-curvature="0"
             id="path2388"
             style="fill:#ffffff;fill-opacity:1;fill-rule:nonzero;stroke:none"
             d="m 199.76356,191.50389 c -0.27479,-16.7911 -13.79734,-17.49977 -13.79734,-17.49977 l -12.19199,0 3.26855,37.32803 9.34286,0 c 4.20862,0 13.43577,-3.71689 13.37792,-19.82826 m 41.43542,9.47302 c 0,39.68544 -29.08434,39.68544 -32.45413,39.68544 -2.35741,0 -68.07557,0.14463 -68.07557,0.14463 l -16.57416,-142.45684 43.86513,0 2.57435,43.89406 c 0,0 0.65082,5.68381 5.06192,5.68381 3.45657,0 5.20654,-3.70243 5.20654,-3.70243 l 10.06599,-45.629576 41.55111,0 -15.475,55.276146 c 0,0 24.25382,8.53295 24.25382,47.10476" /><path
             inkscape:connector-curvature="0"
             id="path2390"
             style="fill:#ffffff;fill-opacity:1;fill-rule:nonzero;stroke:none"
             d="m 268.32941,239.65286 35.12971,0 20.82618,-68.48052 34.62352,68.20573 37.28464,0 -13.349,-140.779173 -37.93546,0 3.87598,53.511703 -24.81786,-53.511703 -12.79942,0 -16.25599,50.011753 -5.26439,-50.011753 -37.51605,0 16.19814,141.053963 z" /><path
             inkscape:connector-curvature="0"
             id="path2392"
             style="fill:#ffffff;fill-opacity:1;fill-rule:nonzero;stroke:none"
             d="m 500.00328,189.11901 6.75404,0 17.70225,27.68146 c 0,0 0.67975,4.1797 -3.5578,7.86767 -3.76029,4.57018 -14.27461,19.69809 -43.15647,19.69809 -28.59261,0 -60.62732,-24.13812 -66.67269,-66.54253 -6.59496,-36.98093 6.11769,-73.05071 39.54081,-81.901835 35.33219,-8.200307 60.22236,14.722955 62.81117,24.022415 1.95245,3.78921 1.95245,4.46895 0,5.53919 -1.21486,2.44418 -11.03498,22.67739 -11.03498,22.67739 l -7.14454,0 c 0,0 -1.44626,0 -3.48549,-2.27063 -1.6632,-1.6632 -8.28708,-8.66311 -12.10521,-9.60318 -4.93176,-4.32433 -31.29712,-3.76029 -29.66284,29.61945 2.95037,37.50158 29.27234,37.50158 29.27234,37.50158 0,0 8.77882,2.41526 20.73941,-14.28907" /></g><g
           id="g5180"><path
             inkscape:connector-curvature="0"
             id="path2394"
             style="fill:#ffffff;fill-opacity:1;fill-rule:nonzero;stroke:none"
             d="m 15.344871,19.293104 13.753954,0 0,35.187561 -13.753954,0 0,-35.187561 z" /><path
             inkscape:connector-curvature="0"
             id="path2396"
             style="fill:#ffffff;fill-opacity:1;fill-rule:nonzero;stroke:none"
             d="m 36.558646,54.482112 15.937811,0 13.985356,-19.394378 0.231402,0 0,19.394378 14.014282,0 0,-35.187562 -15.402694,0 -15.634095,20.146434 -0.202477,0 0,-20.146434 -12.929585,0 0,35.187562 z" /><path
             inkscape:connector-curvature="0"
             id="path2398"
             style="fill:#ffffff;fill-opacity:1;fill-rule:nonzero;stroke:none"
             d="m 87.268941,54.482112 36.821839,0 0,-8.807738 -22.04104,0 0,-5.148693 20.49354,0 0,-8.590799 -20.49354,0 0,-12.640332 -14.780799,0 0,35.187562 z" /><path
             inkscape:connector-curvature="0"
             id="path2400"
             style="fill:#ffffff;fill-opacity:1;fill-rule:nonzero;stroke:none"
             d="m 125.38229,36.518088 c 0,-17.890265 16.01013,-18.541083 24.52861,-18.541083 8.5908,0 24.90464,0.650818 24.90464,18.541083 0,19.278676 -16.31384,19.886106 -24.90464,19.886106 -8.51848,0 -24.52861,-0.60743 -24.52861,-19.886106 m 15.07005,0 c 0,7.694115 3.91938,10.832504 9.45856,10.832504 6.27678,0 10.00814,-3.138389 10.00814,-10.832504 0,-7.347013 -3.73136,-9.776733 -10.00814,-9.776733 -5.53918,0 -9.45856,2.42972 -9.45856,9.776733" /><path
             inkscape:connector-curvature="0"
             id="path2402"
             style="fill:#ffffff;fill-opacity:1;fill-rule:nonzero;stroke:none"
             d="m 209.8093,45.396692 -13.59487,0 0,9.082527 41.00154,0 0,-9.082527 -13.66718,0 0,-26.105035 -13.73949,0 0,26.105035 z" /><path
             inkscape:connector-curvature="0"
             id="path2404"
             style="fill:#ffffff;fill-opacity:1;fill-rule:nonzero;stroke:none"
             d="m 232.94371,19.291657 15.61963,0 1.50412,3.933834 14.70848,0 1.60536,-3.933834 15.3593,0 -15.60517,35.187562 -17.2973,0 -15.89442,-35.187562 z m 28.40459,12.62587 -8.57633,0 4.85944,12.235379 3.71689,-12.235379 z" /><path
             inkscape:connector-curvature="0"
             id="path2406"
             style="fill:#ffffff;fill-opacity:1;fill-rule:nonzero;stroke:none"
             d="m 283.63376,54.482112 14.59279,0 0,-26.07611 22.5183,0 0,-9.111452 -37.11109,0 0,35.187562 z" /><path
             inkscape:connector-curvature="0"
             id="path2408"
             style="fill:#ffffff;fill-opacity:1;fill-rule:nonzero;stroke:none"
             d="m 344.09475,32.565453 -5.85736,-4.165236 0,-9.111452 -13.82627,0 0,35.202024 13.82627,0 0,-12.799421 13.49363,12.799421 18.9605,0 -16.47293,-13.580403 17.58655,-21.621621 -18.55555,0 -9.15484,13.276688 z" /><path
             inkscape:connector-curvature="0"
             id="path2410"
             style="fill:#ffffff;fill-opacity:1;fill-rule:nonzero;stroke:none"
             d="m 400.68121,34.290844 c -5.87182,0.94007 -9.67549,5.365633 -9.67549,9.921359 0,9.270541 9.1693,12.191991 20.91295,12.191991 15.73533,0 22.15674,-4.454488 23.44391,-12.191991 l -16.24152,0 c 0,0.954533 -1.35949,1.894604 -2.38634,3.485492 -1.57642,0.564043 -3.31194,0.780982 -4.81605,0.780982 -3.91937,0 -5.26439,-2.010305 -5.26439,-3.384254 0,-0.795444 0.33264,-1.113622 1.72105,-1.330561 l 16.82003,-2.718973 c 7.11561,-0.940071 11.71472,-4.859442 11.71472,-10.19615 0,-9.371779 -7.49164,-12.871734 -23.34267,-12.871734 -10.1383,0 -22.99557,1.547501 -22.99557,11.324234 l 17.42746,0 c 0.0434,-0.896683 0.69421,-1.70659 1.0847,-2.386333 1.76444,-0.173551 2.83467,-0.347103 5.20654,-0.347103 4.83052,0 5.33671,0.925608 5.33671,2.37187 0,1.648739 -0.13016,2.834674 -2.38633,2.979301 l -16.55971,2.37187 z" /><path
             inkscape:connector-curvature="0"
             id="path2412"
             style="fill:#ffffff;fill-opacity:1;fill-rule:nonzero;stroke:none"
             d="m 441.39494,19.291657 14.11552,0 0,10.326313 15.14237,0 c 9.58872,0 13.29115,5.741662 13.29115,12.191991 0,7.60734 -3.80367,12.669258 -13.43578,12.669258 l -29.11326,0 0,-35.187562 z m 14.11552,26.712465 9.28501,0 c 3.16731,0 5.03299,-1.113622 5.03299,-4.063997 0,-1.836753 -1.86568,-2.603272 -5.03299,-2.603272 l -9.28501,0 0,6.667269 z" /><path
             inkscape:connector-curvature="0"
             id="path2414"
             style="fill:#ffffff;fill-opacity:1;fill-rule:nonzero;stroke:none"
             d="m 487.81852,36.518088 c 0,-17.890265 15.76426,-18.541083 24.48522,-18.541083 8.43171,0 24.89017,0.650818 24.89017,18.541083 0,19.278676 -16.45846,19.886106 -24.89017,19.886106 -8.72096,0 -24.48522,-0.60743 -24.48522,-19.886106 m 15.11344,0 c 0,7.694115 3.91937,10.832504 9.37178,10.832504 5.24993,0 9.34285,-3.138389 9.34285,-10.832504 0,-7.347013 -4.09292,-9.776733 -9.34285,-9.776733 -5.45241,0 -9.37178,2.42972 -9.37178,9.776733" /><path
             inkscape:connector-curvature="0"
             id="path2416"
             style="fill:#ffffff;fill-opacity:1;fill-rule:nonzero;stroke:none"
             d="m 540.60998,19.291657 14.63618,0 0,10.282925 10.21061,0 c 1.90907,0 3.9483,-1.388411 4.1797,-3.890445 0.0145,-4.309862 0.0145,-5.813975 0.39049,-6.39248 l 15.70641,0 c -1.41734,0.578505 -2.15493,2.082618 -2.27064,3.933834 l -0.52065,7.968905 c -0.21694,2.9793 -2.41526,4.194161 -4.57019,4.917292 4.57019,1.518575 5.94414,5.394558 5.94414,8.431709 0,4.425563 -2.18386,7.795354 -5.20654,8.937901 -1.0847,0.723131 -3.86152,0.997921 -8.14246,0.997921 l -30.35705,0 0,-35.187562 z m 14.63618,26.105035 9.87797,0 c 1.79336,0 4.5268,-0.578505 4.5268,-3.586731 0,-1.619813 -2.06816,-2.270631 -4.19416,-2.270631 l -10.21061,0 0,5.857362 z" /><path
             inkscape:connector-curvature="0"
             id="path2418"
             style="fill:#ffffff;fill-opacity:1;fill-rule:nonzero;stroke:none"
             d="m 600.77594,45.396692 -13.17545,0 0,9.082527 40.82799,0 0,-9.082527 -12.66926,0 0,-26.105035 -14.98328,0 0,26.105035 z" /></g></g></g></g></svg>